<svg width="16" height="16" viewBox="0 0 16 16" fill="none" xmlns="http://www.w3.org/2000/svg">
  <rect width="16" height="16" rx="4" fill="url(#gradient16)"/>
  <path d="M8 3C9.10457 3 10 3.89543 10 5V6H11C12.1046 6 13 6.89543 13 8C13 9.10457 12.1046 10 11 10H10V11C10 12.1046 9.10457 13 8 13C6.89543 13 6 12.1046 6 11V10H5C3.89543 10 3 9.10457 3 8C3 6.89543 3.89543 6 5 6H6V5C6 3.89543 6.89543 3 8 3Z" fill="white"/>
  <defs>
    <linearGradient id="gradient16" x1="0" y1="0" x2="16" y2="16" gradientUnits="userSpaceOnUse">
      <stop stop-color="#4F81FD"/>
      <stop offset="1" stop-color="#2563EB"/>
    </linearGradient>
  </defs>
</svg>