<svg width="32" height="32" viewBox="0 0 32 32" fill="none" xmlns="http://www.w3.org/2000/svg">
  <rect width="32" height="32" rx="8" fill="url(#gradient)"/>
  <path d="M16 7C17.6569 7 19 8.34315 19 10V13H22C23.6569 13 25 14.3431 25 16C25 17.6569 23.6569 19 22 19H19V22C19 23.6569 17.6569 25 16 25C14.3431 25 13 23.6569 13 22V19H10C8.34315 19 7 17.6569 7 16C7 14.3431 8.34315 13 10 13H13V10C13 8.34315 14.3431 7 16 7Z" fill="white"/>
  <defs>
    <linearGradient id="gradient" x1="0" y1="0" x2="32" y2="32" gradientUnits="userSpaceOnUse">
      <stop stop-color="#4F81FD"/>
      <stop offset="1" stop-color="#2563EB"/>
    </linearGradient>
  </defs>
</svg>